<?xml version="1.0" encoding="UTF-8"?>
<svg version="1.1" xmlns="http://www.w3.org/2000/svg" width="420" height="138">
<path d="M0 0 C138.6 0 277.2 0 420 0 C420 45.54 420 91.08 420 138 C281.4 138 142.8 138 0 138 C0 92.46 0 46.92 0 0 Z " fill="#FDFDFD" transform="translate(0,0)"/>
<path d="M0 0 C0.71241852 -0.00817749 1.42483704 -0.01635498 2.15884399 -0.02478027 C4.52157754 -0.04963511 6.88425094 -0.0661519 9.24707031 -0.08056641 C10.05415688 -0.08589008 10.86124344 -0.09121376 11.69278717 -0.09669876 C15.96608023 -0.12343289 20.23934406 -0.14280545 24.51269531 -0.15722656 C28.92241625 -0.17386013 33.33138774 -0.2186255 37.74082565 -0.26959801 C41.13467241 -0.30329134 44.52834189 -0.3148063 47.92234039 -0.32045364 C49.54743415 -0.32716221 51.17251639 -0.34237422 52.7974472 -0.36634445 C55.07651865 -0.39804138 57.35357761 -0.39802708 59.6328125 -0.390625 C60.92805847 -0.39871185 62.22330444 -0.40679871 63.55780029 -0.41513062 C68.33929976 0.41137873 69.85483619 1.55182122 73.07519531 5.19287109 C73.82363892 8.56982422 73.82363892 8.56982422 73.81982422 12.47412109 C73.82712555 13.18858398 73.83442688 13.90304688 73.84194946 14.63916016 C73.85810896 16.9913769 73.83099611 19.34081432 73.80175781 21.69287109 C73.80071991 23.33284503 73.80175802 24.97282148 73.80477905 26.61279297 C73.80459984 30.0461147 73.78379401 33.47849481 73.74755859 36.91162109 C73.70218204 41.30683889 73.70109747 45.70068176 73.71459389 50.09606934 C73.72128513 53.48140632 73.70799194 56.86643125 73.68833542 60.25170898 C73.68065106 61.87197231 73.67832686 63.4922704 73.68150711 65.11254883 C73.68225111 67.37957575 73.65694244 69.6448572 73.62451172 71.91162109 C73.61529694 73.20003906 73.60608215 74.48845703 73.59658813 75.81591797 C72.99010013 79.74401493 71.8466415 81.39921515 69.07519531 84.19287109 C66.11550483 85.67271633 63.43777244 85.35294022 60.13452148 85.38574219 C59.42049667 85.39391968 58.70647186 85.40209717 57.97080994 85.41052246 C55.60326986 85.43537411 53.23578974 85.4518919 50.86816406 85.46630859 C50.05982935 85.47163227 49.25149464 85.47695595 48.41866493 85.48244095 C44.14004082 85.50917173 39.86144588 85.52854669 35.58276367 85.54296875 C31.16397762 85.55961545 26.74593759 85.60439278 22.32743359 85.65534019 C18.92933804 85.68900114 15.53141981 85.70054484 12.13317299 85.70619583 C10.50446179 85.71291172 8.8757624 85.72814274 7.24721336 85.75208664 C4.96554207 85.7837186 2.68588585 85.78377921 0.40405273 85.77636719 C-1.54214714 85.78849747 -1.54214714 85.78849747 -3.52766418 85.8008728 C-7.78996884 85.03802873 -9.23303759 83.50382445 -11.92480469 80.19287109 C-13.38351272 77.27545502 -13.07634049 74.69414203 -13.10180664 71.43579102 C-13.10837784 70.74127335 -13.11494904 70.04675568 -13.12171936 69.33119202 C-13.14145926 67.02857356 -13.15311665 64.72602036 -13.16308594 62.42333984 C-13.16716146 61.63707026 -13.17123699 60.85080067 -13.17543602 60.04070473 C-13.1963001 55.87878303 -13.21060011 51.71689434 -13.2199707 47.55493164 C-13.23103367 43.2573229 -13.2654308 38.96023216 -13.3051424 34.66280651 C-13.33129621 31.35735618 -13.33966143 28.05202946 -13.34325218 24.74648476 C-13.34812168 23.16245336 -13.35974612 21.57842763 -13.37829018 19.9944973 C-13.40265588 17.77529324 -13.40172212 15.55743182 -13.39477539 13.33813477 C-13.40064163 12.07619797 -13.40650787 10.81426117 -13.41255188 9.51408386 C-12.83851888 5.60532588 -11.67662024 3.97133541 -8.92480469 1.19287109 C-5.96888356 -0.28508947 -3.29927456 0.03283897 0 0 Z " fill="#5145E5" transform="translate(20.9248046875,26.80712890625)"/>
<path d="M0 0 C0.82113281 -0.02449219 1.64226563 -0.04898438 2.48828125 -0.07421875 C8.40577374 -0.10235263 12.83354693 1.00481499 17.75 4.375 C21.89996197 8.64831541 23.38576721 13.5472754 23.75 19.375 C25.420625 19.560625 25.420625 19.560625 27.125 19.75 C30.75 20.375 30.75 20.375 32.75 22.375 C33.25130184 25.39239766 33.16673809 28.44569189 33.1875 31.5 C33.22037109 32.33015625 33.25324219 33.1603125 33.28710938 34.015625 C33.34156537 40.33252051 31.97018852 44.61084562 27.75 49.375 C21.81353761 54.47954998 15.31629447 53.99134123 7.73413086 53.89648438 C5.68808991 53.87500619 3.64554437 53.89635908 1.59960938 53.921875 C-0.35428711 53.91414063 -0.35428711 53.91414063 -2.34765625 53.90625 C-3.52851807 53.90173828 -4.70937988 53.89722656 -5.92602539 53.89257812 C-11.32461326 53.0519607 -14.25726014 50.35043459 -18.07910156 46.59521484 C-21.68810243 41.24178238 -21.06591979 35.49310533 -21.01171875 29.26269531 C-21.00005637 27.01088419 -21.05226327 24.76661494 -21.109375 22.515625 C-21.22070316 10.5158496 -21.22070316 10.5158496 -16.953125 5.4609375 C-11.63433641 0.38495692 -7.06493506 0.01088588 0 0 Z " fill="#FBFAFE" transform="translate(45.25,42.625)"/>
<path d="M0 0 C4.99125 -0.061875 9.9825 -0.12375 15.125 -0.1875 C16.68879395 -0.21481201 18.25258789 -0.24212402 19.86376953 -0.27026367 C21.10755371 -0.27775635 22.35133789 -0.28524902 23.6328125 -0.29296875 C24.90012207 -0.3086792 26.16743164 -0.32438965 27.47314453 -0.34057617 C32.67816857 0.16205491 35.87995105 1.76205116 39.375 5.625 C41.44105314 9.91603345 41.99252197 13.32096786 41 18 C39.57908442 20.56393992 38.19322369 21.96343515 36 24 C35.34 24 34.68 24 34 24 C34 24.66 34 25.32 34 26 C34.9075 26.226875 35.815 26.45375 36.75 26.6875 C41.0381147 28.41923863 42.95989786 30.91979573 45 35 C45.71910796 42.10855901 45.51392888 47.32865346 41 53 C35.89077154 56.52065149 32.11891063 57.57348755 25.87890625 57.390625 C25.2175769 57.38659668 24.55624756 57.38256836 23.87487793 57.37841797 C21.43713074 57.3577081 18.99978339 57.30186442 16.5625 57.25 C11.096875 57.1675 5.63125 57.085 0 57 C0 38.19 0 19.38 0 0 Z " fill="#040404" transform="translate(123,41)"/>
<path d="M0 0 C2.97 0.33 5.94 0.66 9 1 C8.5206753 5.31392226 7.2542015 7.16569547 4 10 C4.495 10.9590625 4.495 10.9590625 5 11.9375 C6.72871175 17.23167975 6.63531546 22.01931061 4.9375 27.3125 C2.35992014 30.88785271 -0.05391861 32.06283277 -4 34 C-4.99 34.495 -4.99 34.495 -6 35 C-7.87056791 35.2275015 -9.74685958 35.40962811 -11.625 35.5625 C-12.62789063 35.64628906 -13.63078125 35.73007813 -14.6640625 35.81640625 C-15.82035156 35.90728516 -15.82035156 35.90728516 -17 36 C-16.67 37.32 -16.34 38.64 -16 40 C-14.77023437 40.02578125 -13.54046875 40.0515625 -12.2734375 40.078125 C-10.64059068 40.13443006 -9.00777955 40.19177685 -7.375 40.25 C-6.56675781 40.26417969 -5.75851562 40.27835938 -4.92578125 40.29296875 C1.46047228 40.55257255 5.2031362 42.296365 9.875 46.8125 C11.53616141 50.04253607 11.370935 52.41429498 11 56 C9.25615027 60.68085979 7.18025185 63.27797554 3 66 C-2.02333361 68.08742413 -6.52202473 68.36606348 -11.875 68.375 C-12.63941406 68.39949219 -13.40382813 68.42398438 -14.19140625 68.44921875 C-20.7869162 68.48281218 -26.00613685 66.61963026 -31 62.25 C-32.5217393 58.82608657 -32.8194407 55.66868866 -32 52 C-29.6875 49.5 -29.6875 49.5 -27 48 C-26.01 48 -25.02 48 -24 48 C-24.66 47.113125 -25.32 46.22625 -26 45.3125 C-28.7804878 40.70731707 -28.7804878 40.70731707 -28 37 C-26.1875 34.6875 -26.1875 34.6875 -24 33 C-23.01 33 -22.02 33 -21 33 C-21 32.34 -21 31.68 -21 31 C-21.598125 30.773125 -22.19625 30.54625 -22.8125 30.3125 C-25.76738497 28.53956902 -26.64499863 27.18425322 -28 24 C-28.71594341 19.32480328 -28.47087856 15.95986783 -26.375 11.6875 C-23.45145525 8.37927831 -20.54799365 5.41004717 -16.01416016 4.68041992 C-13.87073033 4.6079091 -11.76710026 4.64928643 -9.625 4.75 C-8.52091797 4.77707031 -8.52091797 4.77707031 -7.39453125 4.8046875 C-5.59578264 4.85140824 -3.79771289 4.92313817 -2 5 C-1.34 3.35 -0.68 1.7 0 0 Z " fill="#080808" transform="translate(327,49)"/>
<path d="M0 0 C2.97 0.33 5.94 0.66 9 1 C8.50769231 6.53846154 8.50769231 6.53846154 5.9375 8.875 C4.9784375 9.431875 4.9784375 9.431875 4 10 C4.309375 10.598125 4.61875 11.19625 4.9375 11.8125 C6.98977831 16.03777888 7.39625119 19.32423598 7 24 C4.54639639 28.81283786 1.68286409 31.36588895 -3 34 C-6.12933265 35.01243115 -8.97275374 35.10562166 -12.25 35.0625 C-13.14203125 35.05347656 -14.0340625 35.04445312 -14.953125 35.03515625 C-15.62859375 35.02355469 -16.3040625 35.01195312 -17 35 C-16.34 36.65 -15.68 38.3 -15 40 C-13.77023437 40.02578125 -12.54046875 40.0515625 -11.2734375 40.078125 C-9.64059068 40.13443006 -8.00777955 40.19177685 -6.375 40.25 C-5.56675781 40.26417969 -4.75851562 40.27835938 -3.92578125 40.29296875 C1.47798335 40.51263398 4.72645971 41.3970768 9 45 C11.71672488 49.07508732 11.49888319 52.22380682 11 57 C9.97324753 60.40111757 9.13354887 62.26319324 6.125 64.21875 C-2.59364951 68.70629019 -13.18727525 69.77555432 -22.7578125 67.28125 C-26.80418031 65.37345681 -29.78771429 62.8715 -32 59 C-32.5625 56 -32.5625 56 -32 53 C-29.75 50.125 -29.75 50.125 -27 48 C-25.68 48 -24.36 48 -23 48 C-23 47.34 -23 46.68 -23 46 C-23.99 45.67 -24.98 45.34 -26 45 C-27.54163175 41.9167365 -27.29747535 39.39121901 -27 36 C-25.125 34.0625 -25.125 34.0625 -23 33 C-22.34 33 -21.68 33 -21 33 C-21.433125 32.56171875 -21.86625 32.1234375 -22.3125 31.671875 C-26.84143601 26.5139201 -27.82695656 22.54165133 -27.45703125 15.7109375 C-26.66241674 10.99758304 -24.5158898 9.10662648 -20.80078125 6.39453125 C-17.29314334 4.64805045 -14.77535895 4.66718983 -10.875 4.75 C-9.04582031 4.77320313 -9.04582031 4.77320313 -7.1796875 4.796875 C-4 5 -4 5 -1 6 C-0.67 4.02 -0.34 2.04 0 0 Z " fill="#080808" transform="translate(281,49)"/>
<path d="M0 0 C5.32324607 2.35092774 8.5802028 6.45334185 11.5078125 11.38671875 C13.70761655 17.98613091 13.84821144 27.60104304 10.8828125 34.01171875 C7.97825568 38.74964832 3.68452366 42.34281038 -1.4921875 44.38671875 C-9.11810236 45.22135229 -16.65074267 45.686801 -22.98046875 40.8125 C-27.65573903 36.40300736 -30.20686572 32.34942048 -30.828125 25.8984375 C-30.97405958 11.61144255 -30.97405958 11.61144255 -26.4921875 6.38671875 C-18.54145876 -0.74693905 -10.66072817 -2.62340803 0 0 Z " fill="#070707" transform="translate(231.4921875,54.61328125)"/>
<path d="M0 0 C3.63 0 7.26 0 11 0 C11.33 17.16 11.66 34.32 12 52 C13.65 52.33 15.3 52.66 17 53 C17.87890625 59.15234375 17.87890625 59.15234375 18 61 C16.28429563 62.71570437 14.15801623 62.37338644 11.8125 62.5 C10.39904297 62.60828125 10.39904297 62.60828125 8.95703125 62.71875 C5.14092217 61.79118848 3.72065277 60.31185697 1.27171326 57.31820679 C-1.29426645 52.64068099 -0.72395479 47.48593936 -0.5859375 42.28515625 C-0.57744781 41.07427841 -0.56895813 39.86340057 -0.56021118 38.61582947 C-0.52673378 34.76379917 -0.45145565 30.91389327 -0.375 27.0625 C-0.34489351 24.44469177 -0.31751892 21.82685061 -0.29296875 19.20898438 C-0.22695945 12.80517612 -0.12346846 6.40294773 0 0 Z " fill="#040404" transform="translate(178,37)"/>
<path d="M0 0 C3.625 0.125 3.625 0.125 6.625 1.125 C5.965 4.425 5.305 7.725 4.625 11.125 C3.408125 11.0425 2.19125 10.96 0.9375 10.875 C-2.40616277 10.86907152 -3.3293162 11.09681212 -6.3125 12.9375 C-9.64559386 16.47259954 -9.53781341 19.65060816 -9.69140625 24.32421875 C-9.73330078 25.53271484 -9.77519531 26.74121094 -9.81835938 27.98632812 C-9.85767578 29.24896484 -9.89699219 30.51160156 -9.9375 31.8125 C-9.98068359 33.08673828 -10.02386719 34.36097656 -10.06835938 35.67382812 C-10.1745486 38.82410852 -10.27659533 41.97446839 -10.375 45.125 C-14.005 45.125 -17.635 45.125 -21.375 45.125 C-21.375 30.605 -21.375 16.085 -21.375 1.125 C-17.745 1.125 -14.115 1.125 -10.375 1.125 C-10.045 2.775 -9.715 4.425 -9.375 6.125 C-8.570625 5.320625 -7.76625 4.51625 -6.9375 3.6875 C-3.375 0.125 -3.375 0.125 0 0 Z " fill="#0A0A0A" transform="translate(366.375,53.875)"/>
<path d="M0 0 C2.7227064 2.1821691 4.44091416 4.88182831 6 8 C6.55845758 13.97120027 6.48058514 18.9034289 3 24 C0.51487787 26.66263086 -0.77706951 26.97162703 -4.4375 27.4375 C-8.61907331 26.92397345 -10.1273824 26.03676718 -13 23 C-15.78183671 18.4960739 -15.54901479 13.12695352 -15 8 C-12.1967392 1.41233713 -7.26186088 -1.82987367 0 0 Z " fill="#F5F5F5" transform="translate(227,63)"/>
<path d="M0 0 C2.536875 -0.061875 5.07375 -0.12375 7.6875 -0.1875 C8.47729248 -0.21481201 9.26708496 -0.24212402 10.08081055 -0.27026367 C14.62090198 -0.3236495 17.37900572 0.25136763 21 3 C22.56941198 4.56941198 22.2449847 6.14134994 22.3125 8.3125 C22.34988281 9.09238281 22.38726562 9.87226562 22.42578125 10.67578125 C22 13 22 13 20.55859375 15.27734375 C16.72284047 17.85988909 13.25931476 17.43319091 8.75 17.25 C7.90953125 17.23195313 7.0690625 17.21390625 6.203125 17.1953125 C4.13492605 17.14830798 2.06731559 17.07656724 0 17 C0 11.39 0 5.78 0 0 Z " fill="#FAFAFA" transform="translate(134,72)"/>
<path d="M0 0 C2.206875 -0.061875 4.41375 -0.12375 6.6875 -0.1875 C8.54955078 -0.23970703 8.54955078 -0.23970703 10.44921875 -0.29296875 C14.2277711 0.01879299 16.08490305 0.6064364 19 3 C19.54724942 6.76233979 19.53972687 9.02335137 17.6875 12.375 C13.2322853 16.66520675 5.67659014 15.05620386 0 15 C0 10.05 0 5.1 0 0 Z " fill="#F2F2F2" transform="translate(134,49)"/>
<path d="M0 0 C1.12019531 -0.00128906 2.24039063 -0.00257812 3.39453125 -0.00390625 C4.57402344 -0.00003906 5.75351562 0.00382812 6.96875 0.0078125 C8.73798828 0.00201172 8.73798828 0.00201172 10.54296875 -0.00390625 C12.22326172 -0.00197266 12.22326172 -0.00197266 13.9375 0 C14.97326172 0.00112793 16.00902344 0.00225586 17.07617188 0.00341797 C19.46875 0.1328125 19.46875 0.1328125 20.46875 1.1328125 C20.65625 3.5703125 20.65625 3.5703125 20.46875 6.1328125 C17.86006631 8.74149619 16.72342636 8.39010163 13.09375 8.3984375 C12.02640625 8.40101562 10.9590625 8.40359375 9.859375 8.40625 C8.18101563 8.39464844 8.18101563 8.39464844 6.46875 8.3828125 C5.34984375 8.39054687 4.2309375 8.39828125 3.078125 8.40625 C2.01078125 8.40367188 0.9434375 8.40109375 -0.15625 8.3984375 C-1.13851562 8.39618164 -2.12078125 8.39392578 -3.1328125 8.39160156 C-5.53125 8.1328125 -5.53125 8.1328125 -7.53125 6.1328125 C-6.80205169 0.15338637 -5.80312359 0.00631952 0 0 Z " fill="#5347E5" transform="translate(44.53125,75.8671875)"/>
<path d="M0 0 C1.17175781 -0.01836914 1.17175781 -0.01836914 2.3671875 -0.03710938 C6.30135523 -0.04721426 8.28092449 -0.04188367 11.625 2.1875 C11.30859818 5.11421683 11.0885626 6.73366249 8.94921875 8.828125 C4.56824708 11.3904412 -0.46765231 10.82351368 -5.375 10.1875 C-8.625 8.1875 -8.625 8.1875 -10.375 6.1875 C-9.09290516 -0.95559982 -6.75190198 0.00551626 0 0 Z " fill="#F0F0F0" transform="translate(315.375,98.8125)"/>
<path d="M0 0 C0.78503906 0.00773437 1.57007813 0.01546875 2.37890625 0.0234375 C3.55646484 0.01183594 3.55646484 0.01183594 4.7578125 0 C10.62559838 0.02012963 10.62559838 0.02012963 12.87890625 2.2734375 C13.25390625 4.7109375 13.25390625 4.7109375 12.87890625 7.2734375 C10.53204448 9.64864301 9.12368248 10.24191329 5.78515625 10.671875 C4.66109375 10.66414063 3.53703125 10.65640625 2.37890625 10.6484375 C0.6928125 10.66003906 0.6928125 10.66003906 -1.02734375 10.671875 C-4.36586998 10.24191329 -5.77423198 9.64864301 -8.12109375 7.2734375 C-8.49609375 4.7109375 -8.49609375 4.7109375 -8.12109375 2.2734375 C-5.49385551 -0.35380074 -3.57897702 0.01227779 0 0 Z " fill="#F2F2F2" transform="translate(268.12109375,98.7265625)"/>
<path d="M0 0 C2.50041894 0.08168338 3.83455801 0.19140582 6.0625 1.375 C7.67106522 4.49159511 7.48463381 6.87512469 7.0625 10.3125 C5.4375 12.75 5.4375 12.75 3.0625 14.3125 C-0.09693865 14.76384838 -1.98820882 15.02112581 -4.6015625 13.0703125 C-6.30539719 10.82842475 -6.30973277 9.53906108 -6.25 6.75 C-6.24613281 5.96496094 -6.24226563 5.17992188 -6.23828125 4.37109375 C-5.64083147 0.28205437 -3.89850458 0.30940513 0 0 Z " fill="#F4F4F4" transform="translate(315.9375,61.6875)"/>
<path d="M0 0 C2.52185169 3.78277754 2.72956472 6.55796671 2 11 C0.4375 13.0625 0.4375 13.0625 -2 14 C-5.625 13.875 -5.625 13.875 -9 13 C-11.46324069 9.30513897 -11.38991688 7.36706908 -11 3 C-8.75431478 -1.35101511 -4.26946272 -0.4066155 0 0 Z " fill="#F6F6F6" transform="translate(275,62)"/>
<path d="M0 0 C0.99 0.66 1.98 1.32 3 2 C3.7751938 8.97674419 3.7751938 8.97674419 1.4375 12.0625 C-2.0211441 13.39274773 -4.4440159 12.85607025 -8 12 C-10.32528287 9.67471713 -10.29511025 9.15334102 -10.3125 6 C-10.32925781 5.29875 -10.34601563 4.5975 -10.36328125 3.875 C-10.24339844 3.25625 -10.12351562 2.6375 -10 2 C-6.31282562 -0.45811625 -4.35654296 -0.31118164 0 0 Z " fill="#090909" transform="translate(380,86)"/>
<path d="M0 0 C1.26714844 -0.01417969 2.53429688 -0.02835938 3.83984375 -0.04296875 C7.0625 0.1875 7.0625 0.1875 9.0625 2.1875 C9.25 4.75 9.25 4.75 9.0625 7.1875 C7.08130645 9.16869355 3.32804936 8.37250411 0.625 8.375 C-0.41624023 8.39336914 -0.41624023 8.39336914 -1.47851562 8.41210938 C-3.29970901 8.41739842 -5.1203692 8.30919207 -6.9375 8.1875 C-7.5975 7.5275 -8.2575 6.8675 -8.9375 6.1875 C-8.12558059 -0.47023912 -6.40766736 0.03252623 0 0 Z " fill="#5448E5" transform="translate(45.9375,54.8125)"/>
</svg>
